<?xml version="1.0" encoding="utf-8"?>
<!-- Generator: Adobe Illustrator 24.0.0, SVG Export Plug-In . SVG Version: 6.00 Build 0)  -->
<svg version="1.1" id="Capa_1" xmlns="http://www.w3.org/2000/svg" xmlns:xlink="http://www.w3.org/1999/xlink" x="0px" y="0px"
	 viewBox="0 0 838.7 201.9" style="enable-background:new 0 0 838.7 201.9;" xml:space="preserve">
<style type="text/css">
	.st0{fill:#FFFFFF;}
</style>
<g id="Layer_2">
	<g id="LOGOS">
		<path class="st0" d="M737.7,0H589.6C535.8,0,491.4,42.3,488.8,96h-39.7c-0.2,0-0.4,0-0.6,0.1V19.3c0-10.7-8.7-19.3-19.3-19.3H19.3
			C8.7,0,0,8.7,0,19.3v163.2c0,10.7,8.6,19.3,19.3,19.4c0,0,0,0,0,0h409.8c10.7,0,19.3-8.7,19.3-19.3c0,0,0,0,0,0v-76.8
			c0.2,0,0.4,0.1,0.6,0.1h39.6h0.1c2.6,53.8,47,96.1,100.8,96.1h148.1c55.8,0,101-45.2,101-100.9S793.5,0,737.7,0z M438.7,182.5
			c0,5.3-4.3,9.5-9.5,9.6H19.3c-5.3,0-9.5-4.3-9.5-9.6V19.3c0-5.3,4.3-9.5,9.5-9.5h409.8c5.3,0,9.5,4.3,9.5,9.5L438.7,182.5z
			 M737.7,192.1H589.6c-50.3,0-91.1-40.8-91.1-91.1s40.8-91.1,91.1-91.1h148.1c50.3,0,91.1,40.8,91.1,91.1S788,192.1,737.7,192.1z"
			/>
		<polygon class="st0" points="635.1,48.2 549.4,48.2 549.4,64.9 583.3,64.9 583.3,152.8 601,152.8 601,64.9 635.1,64.9 		"/>
		<path class="st0" d="M661.3,78.7c-18.1,0-35,15.1-35,37.8c0,24.3,17.3,38.5,36.7,38.5c17.3,0,28.6-10.2,32.5-22.7l-14.5-4.6
			c-2.4,7.1-7.7,12.5-18,12.5c-10.6,0.2-19.3-8.2-19.6-18.7H696c0.3-1.8,0.5-3.6,0.4-5.4C696.4,93.3,683.4,78.7,661.3,78.7z
			 M643.9,109c0.7-9.1,8.4-16.1,17.6-15.9c11.8,0,17.4,7.5,17.7,15.9H643.9z"/>
		<path class="st0" d="M742.7,139.4c-10.8,0-20.1-8.1-20.1-22.6s9.3-22.3,19.8-22.3c10.9,0,15.8,7.1,17.4,13.4l15.3-5.6
			c-3-11.5-13.6-23.6-32.9-23.6c-20.7,0-36.7,15.9-36.7,38.1c0,21.8,16.1,38.2,37.2,38.2c18.9,0,29.7-12.3,33-23.5l-15-5.5
			C758.5,134.1,751.1,139.6,742.7,139.4z"/>
		<path class="st0" d="M102.1,49.3H88.2v12.6c0,6.8-3.6,12-12,12h-4.2v13.7h14.9v42.7c0,14.1,8.4,22.2,21.7,22.2
			c3.5,0.1,7-0.4,10.4-1.4v-13c-2,0.4-4,0.6-6,0.6c-7.9,0-10.8-3.6-10.8-10.7V87.7H119V73.9h-16.9V49.3z"/>
		<rect x="356.3" y="34" class="st0" width="15.2" height="117.1"/>
		<path class="st0" d="M213.8,62.1c-1.3-2.2-3.7-3.6-6.3-3.6h-46.6c-2.6,0-5,1.4-6.3,3.6l-23.3,40.3c-1.3,2.2-1.3,5,0,7.3l23.3,40.3
			c1.3,2.2,3.7,3.6,6.3,3.6h46.6c2.6,0,5-1.4,6.3-3.6l23.3-40.3c1.3-2.2,1.3-5,0-7.3L213.8,62.1z M205,142h-41.6l-20.8-36l20.8-36
			H205l20.8,36L205,142z"/>
		<path class="st0" d="M194.3,85.4h-20.1c-1.1,0-2.2,0.6-2.7,1.6l-10.1,17.4c-0.6,1-0.6,2.2,0,3.1l10.1,17.4c0.6,1,1.6,1.6,2.7,1.6
			h20.1c1.1,0,2.2-0.6,2.7-1.6l10.1-17.4c0.6-1,0.6-2.2,0-3.1L197,87C196.4,86,195.4,85.4,194.3,85.4z M189.4,115H179l-5.2-9l5.2-9
			h10.4l5.2,9L189.4,115z"/>
		<path class="st0" d="M322.9,91.7c6.4,0.1,11.7-4.9,11.9-11.4s-4.9-11.7-11.4-11.9c-6.4-0.1-11.7,4.9-11.9,11.4c0,0.1,0,0.3,0,0.4
			C311.7,86.5,316.7,91.5,322.9,91.7z"/>
		<path class="st0" d="M323.1,120.5c-6.4,0-11.5,5.1-11.6,11.4c0,0.2,0,0.3,0,0.5c0,6.1,5.3,11.1,11.7,11.1
			c6.4,0,11.5-5.2,11.4-11.6S329.4,120.4,323.1,120.5L323.1,120.5z"/>
		<path class="st0" d="M297.1,81c6.4,0.1,11.7-4.9,11.8-11.3c0.1-6.4-4.9-11.7-11.3-11.8c-0.2,0-0.4,0-0.7,0
			c-6.3,0.1-11.3,5.2-11.3,11.5C285.6,75.7,290.7,80.9,297.1,81z"/>
		<path class="st0" d="M271.4,68.5c-6.4-0.2-11.8,4.8-12,11.2s4.8,11.8,11.2,12c6.4,0.2,11.8-4.8,12-11.2c0,0,0-0.1,0-0.1
			C282.8,74,277.8,68.7,271.4,68.5z"/>
		<path class="st0" d="M271.2,120.5c-6.4,0-11.5,5.1-11.5,11.5c0,6.4,5.1,11.5,11.5,11.5l0,0c6.4,0,11.5-5.1,11.5-11.5
			S277.5,120.5,271.2,120.5z"/>
		<path class="st0" d="M297.2,117.6c6.3,0,11.5-5.2,11.5-11.5c0,0,0-0.1,0-0.1c0-6.4-5.2-11.5-11.6-11.4c-6.4,0-11.5,5.2-11.4,11.6
			c0,6.3,5.1,11.4,11.4,11.5C297.1,117.6,297.1,117.6,297.2,117.6z"/>
		<path class="st0" d="M297,131.2c-6.3,0.2-11.3,5.6-11.1,11.9c0.2,6.1,5.2,10.9,11.2,11.1c6.3,0.1,11.6-4.9,11.7-11.2
			s-4.9-11.6-11.2-11.7C297.4,131.2,297.2,131.2,297,131.2z"/>
		<path class="st0" d="M333.6,94.5c-6.4,0.1-11.5,5.4-11.4,11.8c0.1,6.4,5.4,11.5,11.8,11.4c6.3-0.1,11.4-5.3,11.4-11.6
			C345.3,99.6,340.1,94.4,333.6,94.5z"/>
		<path class="st0" d="M271.9,106.1c0-6.4-5.1-11.5-11.5-11.6c-6.4-0.2-11.7,4.8-11.9,11.2c-0.2,6.4,4.8,11.7,11.2,11.9
			c0.2,0,0.5,0,0.7,0C266.7,117.5,271.8,112.4,271.9,106.1z"/>
	</g>
</g>
</svg>
